<?xml version="1.0" encoding="utf-8"?>
<!-- Generator: Adobe Illustrator 24.0.0, SVG Export Plug-In . SVG Version: 6.00 Build 0)  -->
<svg version="1.1" id="Capa_1" xmlns="http://www.w3.org/2000/svg" xmlns:xlink="http://www.w3.org/1999/xlink" x="0px" y="0px"
	 viewBox="0 0 355 222.5" style="enable-background:new 0 0 355 222.5;" xml:space="preserve">
<style type="text/css">
	.st0{clip-path:url(#SVGID_2_);}
	.st1{clip-path:url(#SVGID_4_);fill:#6CC200;}
	.st2{clip-path:url(#SVGID_4_);fill:#01921D;}
	.st3{clip-path:url(#SVGID_4_);fill:#15A932;}
	.st4{clip-path:url(#SVGID_4_);fill:#DD2A1B;}
	.st5{clip-path:url(#SVGID_4_);fill:none;stroke:#666666;stroke-width:0.7674;stroke-miterlimit:10;}
	.st6{clip-path:url(#SVGID_4_);fill:#FFFFFF;}
</style>
<g id="Objeto_inteligente_vectorial_1_">
	<g>
		<defs>
			<rect id="SVGID_1_" width="355" height="222.5"/>
		</defs>
		<clipPath id="SVGID_2_">
			<use xlink:href="#SVGID_1_"  style="overflow:visible;"/>
		</clipPath>
		<g class="st0">
			<defs>
				<rect id="SVGID_3_" width="355" height="222.5"/>
			</defs>
			<clipPath id="SVGID_4_">
				<use xlink:href="#SVGID_3_"  style="overflow:visible;"/>
			</clipPath>
			<path class="st1" d="M194.5,203.4c0,0,11.4-6.4,18.8-8.5c0,0,7.9-7,10.7-8.5c0,0,0.6-2.2-2.8-3.5c0,0-3.2-10.5,2.4-17.3
				c0,0,9.5-5.9,11.7-9.5c0,0,15.7,19.4,3.6,30.2c0,0-4.5,3.4-5.1,4.9c0,0-1.5,1.9-4.4-1.5c0,0-1.8-2.8-4.1,1c0,0,0.3,0.8-3.9,2.9
				c0,0-8.2,4-8.4,6.8l-8.2,1.4l0.1,1.2c0,0,12.2-1.7,13-1.4c0,0,3.7,3.3,8,2.5c4.3-0.9,7.4,1.6,7.8,4.7l-16.1,2.8
				c0,0-0.5-6.6-10.7-4.6c0,0-11.7-0.1-12-0.7l-0.5-2.7L194.5,203.4z"/>
			<path class="st1" d="M238.5,188.7c0,0,5.6-3.5,6.3-7c0,0-0.6-2.1,0.3-3.9l1.3-2.4l-1.1-6c0,0,7,0.4,10.5,6.2c0,0,3.4,3.4,6.5,3
				c0,0,6,1.2,51.8-9.5c0,0-27.6,11.2-56.5,15c0,0-0.6,3.2-4.2,3.3C253.5,187.3,243.5,187.5,238.5,188.7"/>
			<path class="st1" d="M237.5,153.7l0.5,2.7c0,0,6,7.8,8.5,11.3c0,0,7,2.2,7.5,2.6c0,0,2.8-6,3.3-6.3l-2.5-14.1c0,0-4.2-6.7-5-7.2
				c-0.7-0.5-0.4,0.1-0.4,0.1l-0.6-4.2C248.9,138.6,243.1,148.9,237.5,153.7"/>
			<path class="st1" d="M259.6,164.5c0,0-4.4,5.1-3.9,6.4c0.5,1.4,4.7,4.1,5.3,4.2c0,0,7.2-0.7,8.7-1.5c0,0,6.1-4.6,10.9-5.6
				c4.8-1,45.3-16.8,46.7-19.7c0,0-19.6,9.9-51.8,18.1c0,0-8.1-6.7-11.2-7.7c0,0-1.2,0.8-1.9,0.3c0,0-2.9-2.3-4.2-2.1L259.6,164.5z"
				/>
			<path class="st1" d="M269.1,159.6l4.8-7l-1.1-6.2c0,0,5.7-1.6,15.5,6.4c0,0,5.4-0.4,9.8-1.9c0,0,45.2-21.7,50.2-23.1
				c0,0-49.4,25.3-57.4,28.1c0,0-11.1,5.2-11.7,6.2c0,0-2.4,2.2-5.1,0.9L269.1,159.6z"/>
			<path class="st1" d="M263.8,157.6l-6.2-4.2c0,0-2.4-6.8-3.3-7.2l-0.8-4.3c0,0,0.6-3.5,8.5-9.3c0,0,32.1-49.6,37.5-53.3
				l-31.8,50.8c0,0,0.5,3.9,1,5c0,0,3,5.2,1.5,8.1c0,0,1.8,7.4,1.4,7.7c0,0-2.1,1.4-1.2,3.6C270.3,154.5,268.3,158.8,263.8,157.6"/>
			<path class="st1" d="M272.9,143.2l-1.7-9.6c0,0,2.7-5.5,11-10.4c0,0,5.4-5.3,11.3-14.7l31.3-42.2l-36.7,55c0,0,4.2,15.9-5,23.5
				c0,0-5.6-0.9-7.1-0.2C276,144.7,273.3,145.8,272.9,143.2"/>
			<path class="st1" d="M283.5,146.1c0,0,5.1-0.4,7.3-11.8c0,0,8.6-0.9,12.6,1.3c0,0,43.9-19.7,45.7-21.1c0,0-21.4,14.4-42.8,22.7
				c0,0-13.9,10.7-15.1,10.9C291.2,148.1,287.4,150,283.5,146.1"/>
			<path class="st1" d="M292,131.9l-1.7-9.7c0,0,6.9-2.6,9.4-5.4c0,0,33-41.7,46.6-51.3c0,0-39.4,45.7-38.7,48.6
				c0,0,6.6-3.6,47.5-34.9l-9.8,9.6c0,0-33.3,27.6-33.3,29.3c0,0,0.8,1,5-1.5c0,0,31.9-17.1,36.4-17.3c0,0-41.9,24.2-45.1,25.8
				c0,0-4,5.5-4.6,6.8C303.6,131.9,295,134.2,292,131.9"/>
			<path class="st1" d="M260.4,110.1c0,0,16.5-23.2,18.6-25.5l-21.4,36.9C257.5,121.5,259.5,114.9,260.4,110.1"/>
			<path class="st1" d="M147.6,205.9c0,0-11.6-4-13.1-16.4c0,0-7.3,4.7-10.2,13.2c0,0-23.8,7.1-43.8,8.5l-9.4,1.2
				C71.3,212.3,134.1,208.9,147.6,205.9"/>
			<path class="st1" d="M122.4,163.3c0,0,11.4,7.6,15.4,9.1c0,0,0.2,2.8-0.8,3.8c0,0-2.2,5.9-2.2,9.3c0,0-0.8,3.4-4.1,3.9
				c0,0-2.1,3-2,3.3c0,0-2.3,0.8-3-0.9c0,0-8.3-7.1-5-23.5C120.8,168.3,122.7,165.2,122.4,163.3"/>
			<path class="st1" d="M99.5,161.1c-0.4,0.1,3.8-1.3,4.9-2.2c0,0,1,1.9,4.2,2.2c0,0,15.2,3.5,9.1,12.3c0,0,0.5,5.1,0.8,5.2
				c0.3,0.1-0.3-0.1-0.3-0.1s-4.2,5.5-5.4,6.4c0,0-4.7,1.6-7.8-3.3c0,0-3.7-6.5-2.9-13.6C102.3,168.1,103.6,160.1,99.5,161.1"/>
			<path class="st1" d="M104.9,197c0,0,7.2-10.3,11.8-13.6c0,0,2-1.2,2.2,0.1c0,0,0.3,5.1,1.4,5.5c0,0,7,4.8,4.7,7.3
				c0,0-1.2,5.1-10.1,5.3c0,0-6.7,0.8-10.1-1.5c0,0-45.7,1.4-59.8-2.6C45.2,197.6,94.4,199.6,104.9,197"/>
			<path class="st1" d="M108.8,189c0,0-3.2,3.1-3.3,4.1c0,0-6.5,2.3-16.6-1.6c0,0-56.2-1.6-65.5-6.8c0,0,50,5.8,64.6,4
				c0,0,6.5-9.7,13.3-12.5c0,0-0.6,9.1,7.7,10.4C109,186.8,110.3,187.5,108.8,189"/>
			<path class="st1" d="M80.4,167.7c0,0,4.6,12.1,11.8,11.4c0,0,2.7-0.6,4.5-2.7c0,0,3.6-0.5,3.6-3.9c0,0,0.4-8.6-4.2-10
				C96.2,162.7,86,167.9,80.4,167.7"/>
			<path class="st1" d="M80.5,172.1c0,0,4.1,8.4,10.1,8.1c0,0-1,3.3-3.5,4.6c0,0-4.1,2.1-19.3-5c0,0-51.7-3.3-56.9-8.2
				c0,0,47.5,6.2,56,5.4c0.2,0,0.3-0.1,0.4-0.1c7.2-1.1,2-0.4,2-0.4S76.3,172,80.5,172.1"/>
			<path class="st1" d="M69.1,174.7c0,0,6-4.1,9.4-4l-0.3-1.9c0,0-12.8,3.3-13.7,2.4L69.1,174.7z"/>
			<path class="st1" d="M30.9,141.1L5.1,128.9l18.1,5.8C23.2,134.7,29,140.3,30.9,141.1"/>
			<polygon class="st1" points="19.1,147.5 3.5,142.1 14.6,149.1 			"/>
			<path class="st1" d="M14.2,161.5L6,159.1l5.1,0.2C11.1,159.3,13.2,161.4,14.2,161.5"/>
			<path class="st1" d="M139.9,173.3c0,0,7.5,3.7,14.9,4.8c0,0-0.5,0.6,1.8,2.4c0,0,7.9,6.8,3.1,17.5c0,0,0.9,1,1.9,1l12.1,3.6
				c0,0,4.4-1.1,4.8,0.3c0.4,1.5,0,0.2,0,0.2s3.6,0.6,8.5-0.3c0,0,1.7-0.4,2.2,0.7c0,0,2.9,1.9,5,1.1l0.4,2.3c0,0-4.3,3.6-11.8,4.8
				c0,0-6.6,0.8-7.7,8l-16.4,2.9c0,0-1.2-6.6,8.9-8.1c0,0,1.8-1.3,4.4-3.9l7.6-1.7l4.6-1.6c0,0-6.3,0.1-9.2,0.8c0,0-1.2-1.4-1.5-2.1
				c0,0-11.8-1.7-13.6-3.5c0,0-2.4-2.7-4.2,0.9c0,0-1.2,4.9-4.9,2c0,0-3.3-2.4-5-2.4c0,0-5.3-4.7-7-5.5
				C138.9,197.3,133.9,187.1,139.9,173.3"/>
			<path class="st2" d="M158.8,2.2c48.8-8.6,95.3,24,103.9,72.7c8.6,48.8-24,95.3-72.7,103.9c-48.8,8.6-95.3-24-103.9-72.7
				C77.4,57.3,110,10.8,158.8,2.2"/>
			<path class="st3" d="M229.9,78.1c68.8-44.7,104.7-1.4,104.7-1.4c1-17.7-22.5-43.1-22.5-43.1c10-5.1,30.1,2.2,30.1,2.2
				c-53.9-81.4-148.8,1.5-148.8,1.5L229.9,78.1z"/>
			<path class="st3" d="M198.1,37.9c0,0,85.5-75,139.6-5.5c0,0-15-6.8-29,0.6c0,0,18.6,18.1,24.3,39.3c0,0-34.3-39.9-102.9,2.3
				L198.1,37.9z"/>
			<path class="st3" d="M117.2,87.8c0,0-46,35.1-117.1,20.6c0,0-1.7,4.3,15.2,19.4c0,0,15.6,13.6,17.7,14.5c0,0-7.3,4.6-28.2,10.6
				c0,0,42.2,53.2,135.6-16.7L117.2,87.8z"/>
			<path class="st3" d="M115.4,92.4c0,0-49.9,33.1-111.4,18.9c0,0,9.8,14.6,35.2,30.3c0,0-11.7,8.1-29.4,12.4
				c0,0,40.2,43.5,127.3-19.9L115.4,92.4z"/>
			<path class="st4" d="M163.8,34.2c31.4-5.5,61.4,15.4,66.9,46.9s-15.4,61.4-46.9,66.9c-31.4,5.5-61.4-15.4-66.9-46.9
				C111.4,69.7,132.4,39.8,163.8,34.2"/>
			<path class="st5" d="M163.8,34.2c31.4-5.5,61.4,15.4,66.9,46.9s-15.4,61.4-46.9,66.9c-31.4,5.5-61.4-15.4-66.9-46.9
				C111.4,69.7,132.4,39.8,163.8,34.2z"/>
			<path class="st6" d="M110.7,74.7l-14.2-3L96,74l-2.4-0.5L95,67c0.4-1.9,0.8-3.3,1.3-4.2c0.5-0.9,1.3-1.5,2.4-2
				c1.1-0.4,2.4-0.5,3.7-0.2c1.1,0.2,2,0.6,2.7,1.2c0.8,0.6,1.3,1.2,1.6,2c0.3,0.7,0.4,1.5,0.4,2.3c0,0.8-0.2,2-0.5,3.6l-0.3,1.2
				l4.9,1l0.5-2.3l2.4,0.5l-1.5,7.3l-2.4-0.5L110.7,74.7z M104.1,70.4l0.3-1.5c0.4-1.8,0.3-3.1,0-3.8c-0.4-0.8-1.2-1.3-2.6-1.6
				c-0.9-0.2-1.6-0.1-2.2,0.1c-0.7,0.2-1.1,0.6-1.3,1.1c-0.3,0.5-0.5,1.4-0.8,2.6L97.1,69L104.1,70.4z"/>
			<path class="st6" d="M116.2,50.7L113,56l2.8,3.3l1.1-1.8l1.9,1.2l-3.5,5.8l-1.9-1.2l1.1-1.8l-9.4-11.2l-1.1,1.8l-1.8-1l4.6-7.5
				l1.8,1l-1.1,1.8l14.3,3l1-1.6l1.9,1.2l-3.5,5.8l-1.9-1.2l1.1-1.8L116.2,50.7z M114,50.2l-7.6-1.9l-0.1,0.2l5.2,6L114,50.2z"/>
			<path class="st6" d="M127.6,46.7l-4.9-4.6l1.8-2l1.2,1.1c2.3,0.4,4.2-0.1,5.6-1.6c0.7-0.8,1.1-1.6,1.2-2.5
				c0.1-0.9-0.2-1.7-0.8-2.3c-0.6-0.6-1.3-0.8-2-0.6c-0.7,0.2-1.8,0.7-3.1,1.7c-1.6,1.1-2.9,1.9-3.8,2.3c-0.9,0.4-1.8,0.6-2.7,0.5
				c-0.9-0.1-1.7-0.5-2.4-1.2c-1.1-1-1.6-2.3-1.4-3.8c0.1-1.5,0.8-2.9,2.1-4.3c1.2-1.3,2.6-2.1,4.3-2.5l-0.9-0.8l1.8-1.9l4.1,3.8
				l-1.8,1.9l-0.9-0.9c-1.8-0.2-3.3,0.5-4.7,1.9c-0.8,0.8-1.2,1.7-1.3,2.4c-0.1,0.8,0.1,1.4,0.6,1.8c0.4,0.3,0.8,0.5,1.3,0.5
				c0.5,0,1-0.1,1.4-0.3c0.5-0.3,1.3-0.8,2.5-1.6c1.6-1.1,2.8-1.8,3.7-2.2c0.9-0.4,1.8-0.5,2.8-0.4c1,0.1,2,0.6,2.8,1.3
				c1.1,1.1,1.7,2.4,1.5,4c-0.1,1.6-0.9,3.2-2.1,4.5c-1.3,1.4-3,2.3-4.9,2.6l1.1,1L127.6,46.7z"/>
			<polygon class="st6" points="143.2,31.6 138.1,19.4 134.7,20.8 136.5,25 134.4,25.8 131.9,19.6 145.1,14.1 147.7,20.3 
				145.7,21.1 143.9,17 140.6,18.4 145.6,30.6 147.8,29.7 148.6,31.7 141.9,34.5 141.1,32.5 			"/>
			<path class="st6" d="M164.5,21.9l-6.3,0.8l-0.8,4.3l2.1-0.3l0.3,2.2l-6.8,0.9l-0.3-2.2l2.1-0.3l2.9-14.5l-2.1,0.3l-0.3-2.1
				l8.9-1.2l0.3,2.1l-2.2,0.3l6.7,13.2l2-0.3l0.3,2.2l-6.8,0.9l-0.3-2.2l2.2-0.3L164.5,21.9z M163.6,19.9l-3.3-7.3l-0.2,0l-1.4,7.9
				L163.6,19.9z"/>
			<path class="st6" d="M174.4,26.8l2.2-6.7l2.5,0.8l-0.5,1.6c0.5,2.4,1.8,3.9,3.7,4.5c1,0.3,1.9,0.3,2.8,0c0.9-0.3,1.4-1,1.7-1.8
				c0.3-0.9,0.2-1.6-0.2-2.1c-0.5-0.6-1.3-1.3-2.8-2.2c-1.6-1-2.9-1.9-3.6-2.5c-0.8-0.7-1.3-1.4-1.5-2.4c-0.3-1-0.3-1.8,0.1-2.8
				c0.5-1.6,1.5-2.6,2.9-3.2c1.4-0.5,3-0.6,4.6,0c1.6,0.5,3,1.5,4,2.9l0.4-1.2l2.4,0.8l-1.8,5.6l-2.4-0.8l0.4-1.3
				c-0.5-1.8-1.8-2.9-3.6-3.5c-1.1-0.3-2-0.4-2.7-0.1c-0.7,0.2-1.2,0.7-1.4,1.4c-0.1,0.5-0.1,1,0,1.5c0.2,0.5,0.4,0.9,0.9,1.2
				c0.4,0.3,1.2,0.8,2.5,1.6c1.6,1,2.8,1.8,3.5,2.4c0.7,0.6,1.2,1.4,1.5,2.5c0.3,1.1,0.3,2.1-0.1,3.3c-0.5,1.6-1.5,2.7-3.1,3.3
				c-1.5,0.6-3.2,0.7-5,0.1c-1.8-0.6-3.3-1.7-4.4-3.4l-0.5,1.5L174.4,26.8z"/>
			<path class="st6" d="M141.4,160.2l-4.8-2.5l-2.7,2.6l1.6,0.8l-0.9,1.8l-5.2-2.7l0.9-1.8l1.6,0.8l9.1-8.7l-1.6-0.8l0.8-1.6
				l6.8,3.5l-0.8,1.6l-1.7-0.9l-1.8,12.6l1.5,0.8l-0.9,1.8l-5.2-2.7l0.9-1.8l1.7,0.8L141.4,160.2z M141.7,158.3l1.2-6.7l-0.2-0.1
				l-4.9,4.9L141.7,158.3z"/>
			<path class="st6" d="M148.4,167l3.4-11.3l-2-0.6l0.6-1.9l6,1.8c1.2,0.4,2.2,0.8,2.9,1.2c0.7,0.4,1.1,1,1.4,1.8
				c0.3,0.8,0.3,1.7,0,2.6c-0.6,2-2,2.9-4.1,2.8l0.9,6.3l1.8,0.6l-0.6,1.9l-3.2-1l-1.2-8l-2.1-0.6l-1.6,5.2l1.9,0.6l-0.6,1.9
				l-6.1-1.9l0.6-1.9L148.4,167z M152.7,160.6l1.7,0.5c0.8,0.3,1.5,0.4,1.9,0.4c0.4,0,0.8-0.1,1.2-0.4s0.6-0.7,0.8-1.3
				c0.1-0.5,0.1-1,0-1.4c-0.1-0.4-0.4-0.7-0.8-0.9c-0.3-0.2-0.9-0.4-1.7-0.6l-1.9-0.6L152.7,160.6z"/>
			<polygon class="st6" points="166.6,171.3 167.7,159.8 164.8,159.5 164.4,163.4 162.7,163.3 163.2,157.4 174.7,158.5 174.2,164.3 
				172.4,164.2 172.8,160.3 169.9,160 168.8,171.5 170.6,171.7 170.4,173.6 164.6,173.1 164.8,171.2 			"/>
			<polygon class="st6" points="180.3,171.6 178.6,160.3 176.8,160.6 176.5,158.7 188,156.9 188.6,161.4 186.9,161.7 186.5,159 
				180.6,160 181.3,164.4 186.4,163.7 186.7,165.5 181.6,166.3 182.3,171.2 188.2,170.3 187.8,167.5 189.5,167.3 190.2,171.9 
				178.7,173.7 178.5,171.8 			"/>
			<path class="st6" d="M195.1,171.2l-1.4-5.5l2-0.5l0.4,1.3c1.4,1.4,2.9,1.9,4.5,1.4c0.8-0.2,1.4-0.6,1.8-1.2
				c0.4-0.6,0.5-1.3,0.4-2c-0.2-0.7-0.6-1.2-1.1-1.4c-0.6-0.2-1.5-0.3-2.8-0.3c-1.5,0-2.7-0.1-3.5-0.1c-0.8-0.2-1.5-0.4-2-0.9
				c-0.6-0.5-1-1.1-1.2-2c-0.3-1.3-0.1-2.4,0.6-3.4c0.7-1,1.8-1.7,3.1-2c1.3-0.3,2.6-0.3,3.9,0.2l-0.3-1l2-0.5l1.2,4.6l-2,0.5
				l-0.3-1.1c-1.2-1-2.5-1.2-3.9-0.8c-0.9,0.2-1.5,0.6-1.9,1.1c-0.4,0.5-0.5,1-0.4,1.5c0.1,0.4,0.3,0.7,0.6,1
				c0.3,0.2,0.7,0.4,1.1,0.5c0.4,0,1.2,0.1,2.4,0.1c1.5,0,2.6,0,3.4,0.2c0.7,0.1,1.4,0.5,2.1,1c0.6,0.6,1.1,1.3,1.3,2.2
				c0.3,1.3,0.1,2.5-0.6,3.6c-0.8,1.1-1.8,1.9-3.3,2.2c-1.5,0.4-3,0.2-4.4-0.5l0.3,1.2L195.1,171.2z"/>
			<path class="st6" d="M215.2,156.6l-4.7,2.5l0.6,3.7l1.6-0.9l1,1.7l-5.2,2.8l-0.9-1.7l1.6-0.9l-2-12.5l-1.6,0.9l-0.9-1.6l6.7-3.6
				l0.9,1.6l-1.7,0.9l9.3,8.6l1.5-0.8l0.9,1.7l-5.2,2.7l-1-1.7l1.7-0.9L215.2,156.6z M213.8,155.3l-4.9-4.9l-0.2,0.1l1.3,6.8
				L213.8,155.3z"/>
			<polygon class="st6" points="225.6,153.8 217.9,145.4 216.4,146.8 215.1,145.5 218.7,142.2 231.2,146.6 224.5,139.4 223.1,140.8 
				221.8,139.4 226,135.5 227.3,136.8 225.8,138.2 234.9,148 233.3,149.5 219.5,144.6 226.9,152.6 228.4,151.2 229.7,152.6 
				225.4,156.5 224.1,155.2 			"/>
			<path class="st6" d="M240,133.8l-3.1,4.4l2.3,3l1-1.5l1.6,1.1l-3.4,4.8l-1.6-1.1l1-1.5l-7.5-10.2l-1,1.5l-1.5-1l4.4-6.3l1.5,1
				l-1.1,1.5l12.2,3.4l0.9-1.3l1.6,1.1l-3.3,4.8l-1.6-1.1l1.1-1.5L240,133.8z M238.2,133.2l-6.6-2.1l-0.1,0.1l4.2,5.4L238.2,133.2z"
				/>
			<polygon class="st6" points="250.9,112.4 239.7,111 239.5,112.8 237.6,112.6 239.1,101 243.6,101.7 243.4,103.4 240.7,103 
				239.9,108.9 244.4,109.5 245.1,104.3 247,104.6 246.3,109.7 251.2,110.4 252,104.5 249.3,104.1 249.5,102.4 254.1,103 
				252.6,114.5 250.8,114.3 			"/>
			<path class="st6" d="M255.1,98.3l-5.7,0.1l-0.1-2.1l1.4,0c1.7-1.1,2.5-2.4,2.5-4c0-0.8-0.3-1.5-0.8-2.1c-0.5-0.6-1.1-0.8-1.9-0.8
				c-0.8,0-1.2,0.3-1.6,0.7c-0.3,0.5-0.6,1.3-0.9,2.7c-0.3,1.5-0.7,2.6-1,3.4c-0.3,0.7-0.8,1.3-1.4,1.8c-0.6,0.5-1.4,0.7-2.2,0.7
				c-1.3,0.1-2.4-0.4-3.2-1.3c-0.8-0.9-1.2-2.1-1.3-3.5c-0.1-1.3,0.4-2.6,1.1-3.8l-1.1,0l-0.1-2l4.7-0.1l0.1,2l-1.1,0
				c-1.2,0.9-1.8,2.1-1.7,3.6c0,0.9,0.2,1.6,0.7,2.1c0.4,0.5,0.9,0.7,1.4,0.7c0.4,0,0.8-0.1,1.1-0.4c0.3-0.2,0.5-0.6,0.7-0.9
				c0.2-0.4,0.3-1.2,0.6-2.3c0.3-1.5,0.7-2.6,1-3.2c0.3-0.7,0.8-1.3,1.5-1.7c0.7-0.5,1.6-0.7,2.5-0.8c1.3-0.1,2.4,0.5,3.4,1.4
				c0.9,1,1.3,2.2,1.4,3.7c0,1.5-0.4,2.9-1.4,4.1l1.3-0.1L255.1,98.3z"/>
			<polygon class="st6" points="247.4,126.5 236.2,122.8 235.6,124.6 233.7,124 235.6,118.2 237.5,118.8 236.9,120.6 248.1,124.3 
				249.6,120 244.5,118.3 245.2,116.3 252.1,118.6 248.7,129 246.8,128.3 			"/>
			<path class="st6" d="M152.3,102.5l30.3-48.9c0,0-24.2,4.2-29.2,7.8c-5,3.6-7.7,6.5-7.7,6.5s-5.2,3.7-4.3-3.3c0,0,2.4-9.1,36-16
				c0,0,24.6-6.1,34.5-4.1c9.9,2,17.1,7,5.3,17.1c-11.8,10-19.5,12.6-19.5,12.6s40.6,3.3,19.8,29.5c0,0-15.1,16.2-36.6,22.8
				c0,0-24.5,11.1-36.6,14.4c-12.1,3.3-16,3.7-18.2,3.2c-2.1-0.5-12.6-1.6,0.3-10.9c0,0,15.5-13.9,64-35.6c0,0,8.3-4.9,9.5-1.2
				c1.2,3.7-3.7,6.5-3.7,6.5s-6.1,2-9.7,1.2c0,0-27.3,11.9-49.2,25.2c0,0-9.7,6.1,2,3.6c0,0,56.3-16,74.6-36.4
				c0,0,11.2-10.7-9.6-13.2c0,0-10.3-1.8-25.7-0.4c0,0-7.3-1.1,3.9-8.6c0,0,3.3-2.5,12.1-5.6c0,0,17.4-9.7,18.3-11.2
				c0.9-1.5,7.5-8.7-8.6-7.3c0,0-13.9,0.8-16.4,2l0.6,3.1c0,0-20.3,40.1-29.2,53.9C159.5,109.3,155.7,116.6,152.3,102.5"/>
			<path class="st6" d="M310.2,35.4c-3.1,1.6-13.1,2.7-13.1,2.7c-2.5,0.6-8.5-0.7-10.4-3.4c-1.8-2.7,9.6-4,13.4-4.3
				c3.8-0.3,11.6-2.4,2.3-8.1c-9.3-5.7-16.8,5-16.8,5c-3.1,2-2,4.2-2,4.2c-0.7,0.6-4.1,4-4.1,4c-4.2,4.3-2.5-4.2-1.6-7
				c0.9-2.8-0.3-7.8-4.1-6.3c-3.8,1.5-10.2,9.2-10.2,9.2c-2.2,2.4-2.4,0.7-2.4,0.7c1.5-1.9,0.7-3.9,0.7-3.9
				c-1.1-5.8-4.8-2.5-4.8-2.5c-0.9,1.7-2.1,2.9-2.1,2.9c-2.4,1-5.8,5.4-5.8,5.4c-2.7,4.3,0.2,3.9,0.2,3.9c1.1-1.6,6.7-6.8,6.7-6.8
				c1.5,1.6-3.9,7.6-3.9,7.6c-3.2,3.5-1.7,7.1-1.7,7.1c-1-0.1-2.4,1-2.7,1.1c-0.3,0.1-6.6,5.9-16.5,4.1c-9.9-1.8,5.7-7.4,11.3-8.5
				c5.6-1.1,5-6.1,2-7.4c-3-1.2-5-1.8-9.7-0.1c-4.8,1.7-9.8,10.6-9.8,10.6c-2,12,10.6,10.5,10.6,10.5c13.7-2.6,14.6-8.1,14.6-8.1
				c0.6-1.5,0.7-1.4,0.7-1.4c0.5,1,1.3,0.6,1.3,0.6c3.2-4.7,16.8-17.7,16.8-17.7c4.3-4.8,2.7,2.1,2.7,2.1c-0.7,1.2,0.1,7.5,0.1,7.5
				c3.3,7.2,7.5,0.5,7.5,0.5c2.1-2.5,4.8-4.4,4.8-4.4c3.6,7.5,6.6,7.9,17.2,6.4c0.1,0,0.2,0,0.3,0C312.1,40.4,310.2,35.4,310.2,35.4
				 M296.4,24.7c3.6-0.5,5.8,1.6,5.8,1.6s-4.8,2-10,2C292.2,28.3,292.7,25.2,296.4,24.7 M242.8,38.7c0,0-2.7,3.2-9.5,3.9
				C233.2,42.5,237,35.6,242.8,38.7"/>
			<path class="st6" d="M44.2,134.6c0,0,3.3-2.1,2.8-9.3l2.8-2.3c0,0,0.2,8.7,0.9,9c0,0,5-0.7,6-0.9l-2.6,3.1l-3.7,0.6
				c0,0,0.6,27.6,7.5,16.1c0,0,1.9,0.2-0.9,3c0,0-3.3,4.8-5.9,1.7c0,0-2.1-1.6-2.4-4.3c0,0-2-11.1-1.6-16.5l-3.1,0.5L44.2,134.6z"/>
			<path class="st6" d="M56.9,136.2l4.8-6.3c0,0,1.6,1.2,1.6,5.7c0,0,0.7,16.8,3.8,16.6c3.1-0.2,3.9-6.9,4.1-8.5
				c0,0-0.9-15-0.5-15.3l3.2-1c0,0,0.3,29,4.8,20.2c0,0-0.2,5.9-3.5,5.8c-3.3-0.1-2.7-6.1-2.7-6.1l-0.7,0.3c0,0-2.4,8.1-6.8,8.6
				c0,0-2.3-0.6-2.8-3.3c0,0-1.5-4.4-1.3-10.2c0.3-5.8-1.2-8.2-1.2-8.2L56.9,136.2z"/>
			<path class="st6" d="M76.9,128.9c0,0,2.8-4.4,3-6.3c0,0,0.4-2-0.3-5.3c0,0,1.7-1.4,2.2-2.7c0,0,1.4,6.5,0.9,8.7
				c0,0,4.6-0.7,6.2-2.7c0,0-2,5.2-6.2,7c0,0,1.3,19.2,5,18.5c0,0,1.5,0.3,2.3-3.6c0,0,2.1-1.3,0.7,1.3c0,0-2,6.5-5.1,6.5
				c-3,0.1-3.6-4.4-3.6-4.4s-1.8-10.1-1.9-17.7L76.9,128.9z"/>
			<path class="st6" d="M88.6,124.1c0,0,2.8-4.4,3-6.3c0,0,0.4-2-0.3-5.3c0,0,1.7-1.4,2.2-2.7c0,0,1.5,6.1,0.9,8.3
				c0,0,3.8-0.7,5.4-2.7c0,0-1.1,4.1-5.4,5.9c0,0,1.2,20.6,4.9,20c0,0,1.5,0.3,2.3-3.6c0,0,2.1-1.3,0.7,1.3c0,0-2,6.5-5.1,6.5
				c-3,0.1-3.6-4.4-3.6-4.4s-1.8-10.1-1.9-17.7L88.6,124.1z"/>
			<path class="st6" d="M113.2,113.6c-1.6-6.5-4.8-3.4-4.8-3.4c-1.1,1-4.6,6.3-6,11.6c-1.5,5.7,1.1,13.7,1.1,13.7s1.4,5.2,4.8,5.4
				c3.4,0.2,5.7-5.6,6.8-10.9C116.1,124.6,113.2,113.6,113.2,113.6 M112.3,134c-1.6,2.2-2.8,2-2.8,2c-4.1-0.9-4.9-8.2-5.4-13.1
				c-0.6-4.9,2.7-8.3,2.7-8.3c2.3-1.4,4.6,5.3,5.6,7.8C113.3,124.9,113.7,131.8,112.3,134"/>
		</g>
	</g>
</g>
</svg>
